<?xml version="1.0" encoding="UTF-8"?>
<svg id="Layer_1" xmlns="http://www.w3.org/2000/svg" version="1.1" viewBox="0 0 283 293">
  <!-- Generator: Adobe Illustrator 30.1.0, SVG Export Plug-In . SVG Version: 2.1.1 Build 136)  -->
  <defs>
    <style>
      .st0 {
        fill: #fff;
      }

      .st1 {
        fill: #245eed;
      }
    </style>
  </defs>
  <path class="st1" d="M229.8,237.4c-38.4,43.7-104.8,53.2-153.7,20-27.6-18.2-44.7-45.5-50.1-77.5-5.3-31.4,1.9-61.8,20.4-87.5,18.4-25.5,44.5-41.7,75.6-47.5,9-1.7,18.3-1.3,27.3-1L194.5,4.6c2.2-1.9,5.7-.8,6.4,2l16.2,63.6c1.4,1.2,2.7,2.4,3.9,3.7,46.2,42.2,51.6,114.6,8.8,163.5Z"/>
  <g id="Mouth">
    <path class="st0" d="M98.5,193.1h0Z"/>
    <path class="st0" d="M107.3,193.1h0Z"/>
  </g>
  <g id="Right_Eye">
    <path class="st0" d="M181.1,127.8v3.9c0,8.2-6.6,14.8-14.8,14.8h-16.7c-8.2,0-14.8-6.6-14.8-14.8v-3.9c0-8.2,6.6-14.8,14.8-14.8h16.7c7.1,0,13,5,14.5,11.7.2,1,.3,2,.3,3.1h0Z"/>
  </g>
  <g id="Left_Eye">
    <path class="st0" d="M111.9,127.8v3.9c0,8.2-6.6,14.8-14.8,14.8h-16.7c-8.2,0-14.8-6.6-14.8-14.8v-3.9c0-.7,0-1.5.2-2.2,1-7.1,7.2-12.6,14.6-12.6h16.7c8.2,0,14.8,6.6,14.8,14.8Z"/>
  </g>
  <path class="st0" d="M146.9,194.1c-3.7,6.1-14.7,10.5-27.6,10.5s-23.9-4.4-27.6-10.5h55.2Z"/>
</svg>