<?xml version="1.0" encoding="UTF-8"?>
<svg id="Layer_1" xmlns="http://www.w3.org/2000/svg" version="1.1" viewBox="0 0 283 293">
  <!-- Generator: Adobe Illustrator 30.1.0, SVG Export Plug-In . SVG Version: 2.1.1 Build 136)  -->
  <defs>
    <style>
      .st0 {
        stroke: #fff;
        stroke-miterlimit: 10;
      }

      .st0, .st1 {
        fill: #fff;
      }

      .st2 {
        fill: #8478c1;
      }
    </style>
  </defs>
  <g id="Body">
    <path class="st2" d="M229.8,237.4c-38.3,43.7-104.8,53.3-153.7,20-27.6-18.2-44.7-45.5-50.1-77.5-5.3-31.4,1.9-61.9,20.4-87.5,18.4-25.5,44.5-41.8,75.6-47.5,11.1-2.1,22.5-1,33.5-.8,3.5-15.6,18.9-27.4,37.2-27.4s38,15.3,38,34.2-3.7,16.9-9.8,22.9c46.2,42.2,51.6,114.6,8.8,163.5h.1Z"/>
  </g>
  <g id="Mouth">
    <path class="st1" d="M141.5,195.4c0,.8,0,1.5-.3,2.3-1.2,5.3-5.8,8.8-10.9,8.8s-1.5,0-2.3-.2c-6-1.3-9.8-7.1-8.6-13.2,1.2-5.3,5.8-8.8,10.9-8.8s1.5,0,2.3.2c5.3,1.2,8.8,5.8,8.8,10.8l.2.2Z"/>
  </g>
  <g id="Left_Eye">
    <path class="st0" d="M97.6,165.6c-14.5,1.8-28.7-6.9-32.6-21.3-4.4-16.2,6.5-32.6,23.1-35.1,7.2-1.1,14.8.7,20.8,5.1,4.6,3.3,7.9,8.3,9.3,13.6,3.9,14.5-5.5,29.1-20.3,31.6-6.2,1.1-12.7-.4-18.2-3.9-4.8-3.2-8.1-8.1-9.3-13.6-2.6-12.2,5.1-24.3,17.5-26.6,6-1.2,12.3,0,17.3,3.9,4.2,3,6.9,7.6,7.8,12.5,1.8,10.8-5.8,20.8-16.7,22-4.6.5-9.2-.5-13-3-3.3-2.3-5.8-5.6-6.7-9.3h0c0-.4-.2-.9-.4-1.2-1.4-7.2,2.3-14.1,8.3-17.3h0c1.6-.9,3.3-1.4,5.3-1.8,3.7-.5,7.4.2,10.6,2.1q2.1,1.3,0,0c-3.2-1.9,0,0,0,0,.7.4,1.4.9,1.9,1.4,5.5,4.6,6.2,12.7,1.9,18.2-.5.7-1.2,1.4-1.9,2.1h0c-4.2,3.5-10.2,4.1-15.2,1.2-.4,0-.5-.4-.9-.5-4.8-3.2-5.8-9.7-2.6-14.3,3.2-4.8,9.7-6,14.5-2.6,3.3,2.3,4.2,6.7,1.9,10s-6.7,4.2-10.2,2.1c-1.9-1.4-2.6-4.1-1.2-6,1.2-1.9,4.1-2.6,6-1.2.7.4.9,1.2.5,1.8-.4.7-1.2.9-1.9.4s-1.6-.4-2.3.4c-.5.7-.5,1.8.2,2.3,2.1,1.6,5.1,1.1,6.7-1.1,1.6-2.1.9-5.1-1.4-6.5-3.5-2.3-8.3-1.2-10.6,2.3s-1.2,8.3,2.5,10.6c4.6,2.8,10.8,1.9,14.1-2.5,3.9-5.1,2.5-12.3-3-15.7-6-3.5-13.7-2.1-18,3.3-3.7,4.9-3.5,11.5,0,16.2.7,1.1,1.6,1.9,2.6,2.6,3.9,3.2,9.2,4.2,13.9,3,8.5-1.9,13.9-10.2,12.5-18.9-.7-4.9-3.7-9.2-8.1-11.8-3.7-2.1-7.9-3.2-12.2-2.6-11.6,1.2-19.6,12.3-16.9,23.8,1.1,5.1,4.2,9.5,8.6,12.3,4.9,3.2,10.8,4.2,16.4,3.2,11.8-2.3,19.7-13.4,18.2-25.2-.9-5.6-3.7-10.9-8.3-14.5-5.6-4.6-13-6.3-20.1-5.1-14.3,2.5-23.6,16.2-20.8,30.3,1.2,6.2,4.8,11.8,10,15.5,6,4.4,13.4,6.2,20.4,5.1,16.2-2.1,27.3-17.5,24.3-33.5-3-16-18.9-25.9-34.6-23.4-17.5,2.6-29.3,19-26.3,36.5,1.4,8.1,6,15.5,12.9,20.3.7.5.9,1.2.5,1.9-.4.5-1.2.9-1.9.4-7.1-4.9-11.8-12.3-13.7-20.4-4.2-19,8.1-37.7,27.1-41.1,17.8-3.2,35.8,7.9,38.6,26.3,2.8,17.6-9.5,33.8-27.1,36l.2-.2Z"/>
  </g>
  <g id="Left_Eye1" data-name="Left_Eye">
    <path class="st0" d="M161.9,165.8c-17.6-2.1-30-18.3-27.1-36,2.8-18.3,20.8-29.4,38.6-26.3,19,3.3,31.4,22,27.1,41.1-1.9,8.1-6.7,15.5-13.7,20.4-.7.5-1.6.2-1.9-.4-.4-.7-.2-1.4.5-1.9,6.9-4.8,11.5-12.2,12.9-20.3,3-17.5-8.8-33.8-26.3-36.5-15.7-2.5-31.6,7.4-34.6,23.4-3,16,8.1,31.4,24.3,33.5,7.1,1.1,14.5-.7,20.4-5.1,5.3-3.7,8.8-9.3,10-15.5,2.8-14.1-6.5-27.9-20.8-30.3-7.1-1.2-14.5.5-20.1,5.1-4.6,3.5-7.4,8.8-8.3,14.5-1.6,11.8,6.3,22.9,18.2,25.2,5.6,1.1,11.5,0,16.4-3.2,4.4-2.8,7.6-7.2,8.6-12.3,2.6-11.5-5.3-22.6-16.9-23.8-4.2-.5-8.5.5-12.2,2.6-4.4,2.6-7.4,6.9-8.1,11.8-1.4,8.6,4.1,16.9,12.5,18.9,4.8,1.2,10,.2,13.9-3,1.1-.7,1.9-1.6,2.6-2.6,3.5-4.8,3.7-11.3,0-16.2-4.2-5.5-12-6.9-18-3.3-5.5,3.3-6.9,10.6-3,15.7,3.3,4.4,9.5,5.3,14.1,2.5,3.7-2.3,4.8-7.1,2.5-10.6s-7.1-4.6-10.6-2.3c-2.3,1.4-3,4.4-1.4,6.5,1.6,2.1,4.6,2.6,6.7,1.1.7-.5.7-1.6.2-2.3-.7-.7-1.6-.9-2.3-.4s-1.6.4-1.9-.4c-.4-.5-.2-1.4.5-1.8,1.9-1.4,4.8-.7,6,1.2,1.4,1.9.7,4.6-1.2,6-3.5,2.1-7.9,1.2-10.2-2.1-2.3-3.3-1.4-7.8,1.9-10,4.8-3.3,11.3-2.1,14.5,2.6,3.2,4.6,2.1,11.1-2.6,14.3-.4.2-.5.5-.9.5-4.9,2.8-10.9,2.3-15.2-1.2h0c-.7-.7-1.4-1.4-1.9-2.1-4.2-5.5-3.5-13.6,1.9-18.2.5-.5,1.2-1.1,1.9-1.4,0,0,3.2-1.9,0,0q-2.1,1.3,0,0c3.2-1.9,6.9-2.6,10.6-2.1,1.9.4,3.7.9,5.3,1.8h0c6,3.2,9.7,10,8.3,17.3-.2.4-.4.9-.4,1.2h0c-.9,3.7-3.3,7.1-6.7,9.3-3.9,2.5-8.5,3.5-13,3-10.9-1.2-18.5-11.3-16.7-22,.9-4.9,3.5-9.5,7.8-12.5,4.9-3.9,11.3-5.1,17.3-3.9,12.3,2.3,20.1,14.5,17.5,26.6-1.2,5.5-4.6,10.4-9.3,13.6-5.5,3.5-12,4.9-18.2,3.9-14.8-2.5-24.2-17.1-20.3-31.6,1.4-5.3,4.8-10.2,9.3-13.6,6-4.4,13.6-6.2,20.8-5.1,16.6,2.5,27.5,18.9,23.1,35.1-3.9,14.5-18.2,23.1-32.6,21.3l.2.2Z"/>
  </g>
</svg>