<?xml version="1.0" encoding="UTF-8"?>
<svg xmlns="http://www.w3.org/2000/svg" version="1.1" viewBox="0 0 283 293">
  <!-- Generator: Adobe Illustrator 30.1.0, SVG Export Plug-In . SVG Version: 2.1.1 Build 136)  -->
  <defs>
    <style>
      .st0 {
        fill: #17c1c1;
      }

      .st1 {
        fill: #fff;
      }

      .st2 {
        fill: #25f456;
      }
    </style>
  </defs>
  <g id="Body">
    <path class="st0" d="M172.2,121.9c-7.9,0-14.3,6.4-14.3,14.4s6.4,14.3,14.3,14.3,14.4-6.4,14.4-14.3-6.4-14.4-14.4-14.4ZM75.3,121.9c-7.9,0-14.3,6.4-14.3,14.4s6.4,14.3,14.3,14.3,14.4-6.4,14.4-14.3-6.4-14.4-14.4-14.4Z"/>
    <path class="st0" d="M221,73.9c-1.3-1.4-2.7-2.7-4.1-3.9,0,0-3-2.4-8.6-5.9l-1.5-6.6-6.1-32.6c-.8-4-3.8-6.7-7.3-7.3-.4,0-.8-.1-1.2-.2-2.2-.1-4.4.5-6.3,2l-25.8,20.8c-.4.3-.8.7-1.1,1l-4,2.7c-10.8-.3-22.1-1.3-33,.8-31.1,5.8-57.2,22-75.6,47.5-18.5,25.7-25.7,56.1-20.4,87.5,5.4,32,22.5,59.3,50.1,77.5,48.9,33.2,115.3,23.7,153.7-20,42.8-48.9,37.4-121.3-8.8-163.5ZM75.3,150.6c-7.9,0-14.3-6.4-14.3-14.3s6.4-14.4,14.3-14.4,14.4,6.4,14.4,14.4-6.4,14.3-14.4,14.3ZM145.8,191l-24.5,42.5-22.1-38.3-7.6-13.2-2.8-4.9h65.1l-8,13.9ZM172.2,150.6c-7.9,0-14.3-6.4-14.3-14.3s6.4-14.4,14.3-14.4,14.4,6.4,14.4,14.4-6.4,14.3-14.4,14.3Z"/>
    <path class="st2" d="M193.4,17.7c-.4,0-.8-.1-1.2-.2.4,0,.8,0,1.2.2Z"/>
  </g>
  <g id="Mouth">
    <path class="st1" d="M98.5,193.1h0Z"/>
    <path class="st1" d="M107.3,193.1h0Z"/>
    <polygon class="st1" points="153.8 177.1 145.8 191 121.2 233.5 99.1 195.2 91.5 182 88.7 177.1 153.8 177.1"/>
  </g>
  <g id="Right_Eye">
    <path class="st1" d="M156.4,111.7l2.9,9.1h9.5c2.7,0,3.8,3.4,1.6,5l-7.7,5.6,2.9,9.1c.8,2.5-2.1,4.6-4.2,3.1l-7.7-5.6-7.7,5.6c-2.1,1.6-5-.5-4.2-3.1l2.9-9.1-7.7-5.6c-2.1-1.6-1-5,1.6-5h9.5s2.9-9.1,2.9-9.1c.8-2.5,4.4-2.5,5.2,0Z"/>
  </g>
  <g id="Left_Eye">
    <path class="st1" d="M88.7,110.7l2.9,9.1h9.5c2.7,0,3.8,3.4,1.6,5l-7.7,5.6,2.9,9.1c.8,2.5-2.1,4.6-4.2,3.1l-7.7-5.6-7.7,5.6c-2.1,1.6-5-.5-4.2-3.1l2.9-9.1-7.7-5.6c-2.1-1.6-1-5,1.6-5h9.5s2.9-9.1,2.9-9.1c.8-2.5,4.4-2.5,5.2,0Z"/>
  </g>
</svg>