<?xml version="1.0" encoding="UTF-8"?>
<svg id="Layer_1" xmlns="http://www.w3.org/2000/svg" version="1.1" viewBox="0 0 283 293">
  <!-- Generator: Adobe Illustrator 30.1.0, SVG Export Plug-In . SVG Version: 2.1.1 Build 136)  -->
  <defs>
    <style>
      .st0 {
        fill: #fff;
      }

      .st1 {
        fill: #d663cb;
      }
    </style>
  </defs>
  <g id="Body">
    <path class="st1" d="M229.8,237.4c-38.4,43.7-104.8,53.2-153.7,20-27.6-18.2-44.7-45.5-50.1-77.5-5.3-31.4,1.9-61.8,20.4-87.5,18.4-25.5,44.5-41.7,75.6-47.5,11.1-2.1,22.5-1,33.5-.8,0,0,2.1.3,5.7,1l42.3-27,6-3.8c2.1-1.3,4.9.1,5,2.6l.3,6.2,2.1,46.9c1.4,1.2,2.8,2.5,4.1,3.9,46.2,42.2,51.6,114.6,8.8,163.5Z"/>
  </g>
  <g id="Mouth">
    <path class="st0" d="M100.6,166.1c0,.5-.4,1.1-.8,1.6-2.8,3.4-11.8,4.2-21.2,2.2-1.4-.3-2.8-.7-4.2-1.1-10.8-3.3-16.8-9.1-13.6-12.9,2.8-3.4,11.8-4.2,21.2-2.1,1.4.3,2.8.6,4.2,1.1,9.3,2.8,15.2,7.6,14.4,11.3h0Z"/>
  </g>
  <g id="Right_Eye">
    <path class="st0" d="M132.4,120.9c-4.5,6.8-12,9.7-16.8,6.5-4.8-3.2-5-11.2-.5-18s12-9.7,16.8-6.5,5,11.2.5,18Z"/>
  </g>
  <g id="Left_Eye">
    <path class="st0" d="M81.9,102.9c0,.6-.3,1.2-.6,1.8-1.4,3.6-4.3,5.8-7.1,5.2-1.5-.3-2.7-1.5-3.4-3-.8-1.8-1.1-4.2-.6-6.6,1-4.6,4.4-7.8,7.6-7.1,3.2.7,5,5,4,9.6h0Z"/>
  </g>
</svg>