<?xml version="1.0" encoding="UTF-8"?>
<svg id="Layer_1" xmlns="http://www.w3.org/2000/svg" version="1.1" viewBox="0 0 398 398.6">
  <!-- Generator: Adobe Illustrator 30.1.0, SVG Export Plug-In . SVG Version: 2.1.1 Build 136)  -->
  <defs>
    <style>
      .st0 {
        fill: #e40f7f;
      }

      .st1 {
        fill: none;
      }

      .st2 {
        fill: #866cb0;
      }

      .st3 {
        fill: #243568;
      }
    </style>
  </defs>
  <polygon class="st2" points="190.9 111 193.1 110.5 247.4 143.4 251.7 236.7 210.5 291.3 199.6 278.7 190.9 111.8 190.9 111"/>
  <path class="st3" d="M192.1,276.4c-4.4-4.3-8.5-8.9-12.1-13.8-11.6-15.8-18.7-33.5-21.7-52.8-1.2-7.5-1.7-15.1-1.2-22.8,1.5-26.1,10-49.5,27-69.6,1.9-2.3,4.1-4.4,6.1-6.6,0,0,0,0,0,0h0s0,0,0,0c-.3-.6-.2-1.3-.2-2,0,0,0-.2,0-.2-.3-10.3-.5-20.6-.8-30.9-.1-3.8-.2-7.6-.4-11.4-.2-3.3-2.8-4.7-5.7-3-.9.5-1.6,1.1-2.5,1.7-11.6,8.5-23.2,17-34.8,25.5-.2.2-.5.3-.7.4-1.1.7-2.2.9-3.7.7-9.2-1.4-18.5-1.8-27.8-1-21.1,1.8-40.5,8.5-57.6,20.9-8,5.8-15,12.1-21.1,18.9-9.5,11-17.1,23.8-22,37.8-4.3,12.2-6.7,25.4-6.7,39.1s2.6,28.2,7.4,41c7.6,20.5,20.8,38.2,37.7,51.6,1,.8,2.1,1.6,3.1,2.4.5.2.9.5,1.3.8,29.7,20,61.9,25.8,96.6,17.1,21.1-5.3,39.2-15.9,54.3-31.5-4.9-3.9-9.9-7.6-14.4-12ZM62.5,190.4c-4.6.1-8.3-3.4-8.3-8s3.6-7.8,7.8-8c4.6-.1,8.2,3.2,8.2,7.7h0c0,4.4-3.5,8.2-7.8,8.3ZM117.7,225.2c-1.3,12.1-9.5,22.1-20.2,24.5-8.9,2.1-16.4-.5-22.3-7.4-3.9-4.5-5.7-10-6.2-15.9-.2-2.4,0-2.6,2.4-2.7,7.5-.2,15-.3,22.5-.5h0c7.2,0,14.4-.2,21.6-.4,2.3,0,2.5.2,2.3,2.3ZM122.5,189c-4.6,0-8.5-3.9-8.5-8.3,0-5,3.7-8.8,8.6-8.9,4.8,0,8.5,3.9,8.5,8.9,0,4.3-4.2,8.4-8.6,8.3Z"/>
  <path class="st0" d="M388.4,164c-13.3-54-62.9-90.5-117.5-88.5-18.5.7-35.9,5.4-52.1,14.1-10,5.4-19.1,12-26.9,20.2-.3.3-.7.7-1,1.1,0,0,.2,0,.2.1,1.1.6,2.1,1.2,3.1,1.8.4.2.8.5,1.1.7,1.3.9,2.6,1.9,3.9,2.9.8.7,1.7,1.4,2.5,2.1,2.2,2,4.2,4,6.3,6.2,1,1,1.9,2.1,2.9,3.1.6.6,1.2,1.3,1.7,1.9,0,0,0,0,0,0,.5.6,1,1.2,1.5,1.8.1.1.2.2.3.4.4.5.8,1,1.2,1.5.5.6,1,1.3,1.5,2,.3.4.6.8.9,1.2,0,0,.1.2.2.3.3.4.6.8.8,1.2,0,.1.2.2.3.4.6.9,1.2,1.8,1.9,2.8.7,1,1.3,2,2,3,4,6.4,7.2,13.2,9.9,20.2,2.5,6.8,4.6,13.7,5.9,20.8,1.8,9.9,2.6,19.8,2,29.9-.7,10.9-2.6,21.6-6.3,32-1.5,4.3-3.6,8.2-5.8,12.1-3.4,6.1-7.2,12-11.3,17.7-2.2,3-4.6,5.8-7.2,8.5-.4.5-.9.9-1.3,1.3-.4.4-.9.9-1.3,1.3-.2.2-.3.3-.5.5.3.9.3,1.8.4,2.8,0,.1,0,.3,0,.4,0,.2,0,.5,0,.7.3,10.5.5,21,.8,31.5,0,3.1.2,6.2.4,9.3.2,3.2,2.7,4.5,5.5,3,.9-.5,1.7-1.1,2.5-1.7,11.6-8.5,23.2-17,34.8-25.5,1.4-1.1,2.7-1.5,4.6-1.2,11.4,1.8,22.9,1.9,34.3.3,17.9-2.5,34.4-8.8,49.3-18.9.8-.6,1.6-1.2,2.6-1.4h0c.1-.2.3-.5.4-.7,0,0,0,0,0,0,.2-.2.3-.4.5-.6.1-.1.3-.3.4-.4.1-.1.3-.2.4-.4.2-.2.4-.3.7-.5.7-.5,1.5-1,2.2-1.6,3-2.4,5.8-4.8,8.4-7.4.3-.3.6-.6,1-.9,0,0,.1,0,.1-.1.3-.3.6-.6.9-.9.5-.5.9-.9,1.4-1.4.2-.2.3-.3.5-.5.8-.9,1.6-1.7,2.4-2.6.7-.7,1.3-1.5,1.9-2.2.3-.3.6-.7.8-1,1.1-1.3,2.2-2.6,3.2-4,1.1-1.4,2.1-2.8,3.1-4.2,1.4-2,2.7-4,3.9-6.1.2-.2.3-.5.5-.8,1.3-2.2,2.5-4.4,3.7-6.7.4-.7.7-1.5,1.1-2.2.4-.8.8-1.6,1.1-2.4.3-.6.5-1.2.8-1.8,0-.1.1-.2.2-.4.3-.7.6-1.4.8-2,0,0,0-.1,0-.2.1-.3.2-.6.4-.9.2-.4.3-.8.5-1.3.1-.4.3-.7.4-1.1.4-1.1.8-2.2,1.2-3.4.2-.6.4-1.3.6-2,.2-.5.3-1,.5-1.6,0-.2.1-.4.2-.7.2-.6.3-1.1.5-1.7,0-.3.2-.6.3-1,.4-1.6.8-3.2,1.2-4.8.4-1.8.8-3.6,1.1-5.4,1.2-6.3,1.4-12.7,2-19h0c-.2-9.9-1.2-19.5-3.6-29.1ZM296.6,249c-4.4,0-8.4-4.2-8.4-8.5s4.1-8.1,8.7-8.1c5,0,8.5,3.4,8.5,8.1,0,4.4-4.2,8.5-8.8,8.4ZM344.8,200c-7.2,0-14.4,0-21.6,0h0c-7.2,0-14.4-.5-21.6-.5s-1.2,0-1.8-.1c-1.3-.2-1.9-1-1.8-2.3,0-.3.1-.6.2-.9,2.3-9.1,9.7-20,22.6-22.4,8.9-1.7,18,2.5,23,10.6,2.3,3.7,3.5,7.8,4,12.1.3,2.7-.3,3.4-3.1,3.4ZM355.5,248.9c-4.5,0-8.3-3.6-8.3-7.8s4.2-9,8.7-9,8.4,3.6,8.4,8.3h0c0,4.6-4,8.4-8.8,8.5Z"/>
  <path class="st2" d="M240.8,215.1c-.7,10.9-2.6,21.6-6.3,32-1.5,4.3-3.6,8.2-5.8,12.1-3.4,6.1-7.2,12-11.3,17.7-3,4.2-6.6,8-10.3,11.6-.3-.6-.7-.1-.7-.1-4.9-3.9-9.9-7.6-14.4-12-4.4-4.3-8.5-8.9-12.1-13.8-11.6-15.8-18.7-33.5-21.7-52.8-1.2-7.5-1.7-15.1-1.2-22.8,1.5-26.1,10-49.5,27-69.6,1.9-2.3,4.1-4.4,6.1-6.6,0,0,0,0,0,0,0,0,0,0,0,0,0,0,.2,0,.3,0s.3,0,.3,0c8,4.2,14,10.6,20,17.1,4.7,5,8.6,10.6,12.2,16.3,4,6.4,7.2,13.2,9.9,20.2,2.5,6.8,4.6,13.7,5.9,20.8,1.8,9.9,2.6,19.8,2,29.9Z"/>
  <path class="st2" d="M190.2,110.8h0s0,0,0,0Z"/>
  <path class="st1" d="M190.2,110.8s0,0,0,0"/>
</svg>