<?xml version="1.0" encoding="UTF-8"?>
<svg id="Layer_1" xmlns="http://www.w3.org/2000/svg" version="1.1" viewBox="0 0 858 323.2">
  <!-- Generator: Adobe Illustrator 30.1.0, SVG Export Plug-In . SVG Version: 2.1.1 Build 136)  -->
  <defs>
    <style>
      .st0 {
        fill: #e40f7f;
      }

      .st1 {
        fill: none;
      }

      .st2 {
        fill: #866cb0;
      }

      .st3 {
        fill: #243568;
      }
    </style>
  </defs>
  <polygon class="st2" points="495.1 50.8 497.3 50.2 551.7 83.1 555.9 176.4 514.8 231.1 503.8 218.5 495.1 51.5 495.1 50.8"/>
  <path class="st3" d="M496.3,216.2c-4.4-4.3-8.5-8.9-12.1-13.8-11.6-15.8-18.7-33.5-21.7-52.8-1.2-7.5-1.7-15.1-1.2-22.8,1.5-26.1,10-49.5,27-69.6,1.9-2.3,4.1-4.4,6.1-6.6,0,0,0,0,0,0h0s0,0,0,0c-.3-.6-.2-1.3-.2-2-.3-10.4-.6-20.8-.9-31.2-.1-3.8-.2-7.6-.4-11.4-.2-3.3-2.8-4.7-5.7-3-.9.5-1.6,1.1-2.5,1.7-11.6,8.5-23.2,17-34.8,25.5-1.4,1-2.6,1.4-4.4,1.1-9.2-1.4-18.5-1.8-27.8-1-21.1,1.8-40.5,8.5-57.6,20.9-32.7,23.6-49.4,55.8-50.2,96.1-.2,13.4,2.2,26.4,6.8,39.1.3,1,1.1,1.9.7,3.1-.4,0-.8.1-1.2.1-24.9,0-49.8-.2-74.7-.3-2.4,0-2.4,0-2.4-2.6-.5-38.6-1-77.2-1.4-115.8-.2-14.2,0-28.4-.6-42.6-.3-7.9-3.2-14.8-8.6-20.6-9.3-10-22.5-10.3-32.1-.6-6.3,6.4-9.4,14.3-10.4,23.1-1.1,10.6-1.6,21.3-1.5,32,.6,57.9,1.1,115.8,1.6,173.7,0,3.1.8,3.9,3.8,4,.6,0,1.2,0,1.8,0,54.4.4,108.8.8,163.2,1.1,1.8,0,3.2.5,4.7,1.5,29.7,20,61.9,25.8,96.6,17.1,21.1-5.3,39.2-15.9,54.3-31.5-4.9-3.9-9.9-7.6-14.4-12ZM366.8,130.1c-4.6.1-8.3-3.4-8.3-8s3.6-7.8,7.8-8c4.6-.1,8.2,3.2,8.2,7.7h0c0,4.4-3.5,8.2-7.8,8.3ZM421.9,165c-1.3,12.1-9.5,22.1-20.2,24.5-8.9,2.1-16.4-.5-22.3-7.4-3.9-4.5-5.7-10-6.2-15.9-.2-2.4,0-2.6,2.4-2.7,7.5-.2,15-.3,22.5-.5h0c7.2,0,14.4-.2,21.6-.4,2.3,0,2.5.2,2.3,2.3ZM426.8,128.7c-4.6,0-8.5-3.9-8.5-8.3,0-5,3.7-8.8,8.6-8.9,4.8,0,8.5,3.9,8.5,8.9,0,4.3-4.2,8.4-8.6,8.3Z"/>
  <path class="st0" d="M692.6,103.8c-13.3-54-62.9-90.5-117.5-88.5-18.5.7-35.9,5.4-52.1,14.1-10.4,5.6-19.8,12.6-27.9,21.2,8,4.2,14,10.6,20,17.1,4.7,5,8.6,10.6,12.2,16.3,4,6.4,7.2,13.2,9.9,20.2,2.5,6.8,4.6,13.7,5.9,20.8,1.8,9.9,2.6,19.8,2,29.9-.7,10.9-2.6,21.6-6.3,32-1.5,4.3-3.6,8.2-5.8,12.1-3.4,6.1-7.2,12-11.3,17.7-3,4.2-6.6,8-10.3,11.6.3.9.3,1.8.4,2.8.3,10.9.5,21.8.8,32.7,0,3.1.2,6.2.4,9.3.2,3.2,2.7,4.5,5.5,3,.9-.5,1.7-1.1,2.5-1.7,11.6-8.5,23.2-17,34.8-25.5,1.4-1.1,2.7-1.5,4.6-1.2,11.4,1.8,22.9,1.9,34.3.3,17.9-2.5,34.4-8.8,49.3-18.9.8-.6,1.6-1.2,2.6-1.4h0c.1-.2.3-.5.4-.7,0,0,0,0,0,0,.2-.2.3-.4.5-.6.1-.1.3-.3.4-.4.1-.1.3-.2.4-.4.2-.2.4-.3.7-.5.7-.5,1.5-1,2.2-1.6,3-2.4,5.8-4.8,8.4-7.4.3-.3.6-.6,1-.9,0,0,.1,0,.1-.1.3-.3.6-.6.9-.9.5-.5.9-.9,1.4-1.4.2-.2.3-.3.5-.5.8-.9,1.6-1.7,2.4-2.6.7-.7,1.3-1.5,1.9-2.2.3-.3.6-.7.8-1,1.1-1.3,2.2-2.6,3.2-4,1.1-1.4,2.1-2.8,3.1-4.2,1.4-2,2.7-4,3.9-6.1.2-.2.3-.5.5-.8,1.3-2.2,2.5-4.4,3.7-6.7.4-.7.7-1.5,1.1-2.2.4-.8.8-1.6,1.1-2.4.3-.6.5-1.2.8-1.8,0-.1.1-.2.2-.4.3-.7.6-1.4.8-2,0,0,0-.1,0-.2.1-.3.2-.6.4-.9.2-.4.3-.8.5-1.3.1-.4.3-.7.4-1.1.4-1.1.8-2.2,1.2-3.4.2-.6.4-1.3.6-2,.2-.5.3-1,.5-1.6,0-.2.1-.4.2-.7.2-.6.3-1.1.5-1.7,0-.3.2-.6.3-1,.4-1.6.8-3.2,1.2-4.8.4-1.8.8-3.6,1.1-5.4,1.2-6.3,1.4-12.7,2-19h0c-.2-9.9-1.2-19.5-3.6-29.1ZM600.8,188.7c-4.4,0-8.4-4.2-8.4-8.5s4.1-8.1,8.7-8.1c5,0,8.5,3.4,8.5,8.1,0,4.4-4.2,8.5-8.8,8.4ZM649,139.7c-7.2,0-14.4,0-21.6,0h0c-7.2,0-14.4-.5-21.6-.5s-1.2,0-1.8-.1c-1.3-.2-1.9-1-1.8-2.3,0-.3.1-.6.2-.9,2.3-9.1,9.7-20,22.6-22.4,8.9-1.7,18,2.5,23,10.6,2.3,3.7,3.5,7.8,4,12.1.3,2.7-.3,3.4-3.1,3.4ZM659.7,188.6c-4.5,0-8.3-3.6-8.3-7.8s4.2-9,8.7-9,8.4,3.6,8.4,8.3h0c0,4.6-4,8.4-8.8,8.5Z"/>
  <path class="st3" d="M646.8,227.5c1.1-1.9,3.1-2.8,4.7-4.1,23.1-18.5,37.2-42.4,42.8-71.5,1.2-6.3,1.4-12.7,2-19.1,1.1,3.7,2,7.5,3.6,11.1,8.9,20.2,29.2,32.5,51.3,31,24.1-1.6,44.2-20.1,47.7-44,4.3-29.3-16-56-45.4-59.5-5.6-.7-11.2-.5-16.7.8-4,.9-4,.9-6.3-2.6-6.2-9.4-12.3-18.9-18.6-28.3-3.3-5-6.7-10-10-15-.5-.8-1.1-1.7-1.6-2.6-1-1.8-1.1-1.9,1-2.8,5.8-2.5,11.7-4.7,17.8-6.2,24.7-6.3,48.9-4.8,72.1,5.7,36,16.4,58.2,44.2,65.2,83.2,8.5,47.7-15.2,94.8-58.2,117.2-18.5,9.6-38.3,13.6-59.1,12.2-12.3-.8-24.3-3.7-35.7-8.6-1.1-.5-2.1-1.1-3.7-1.3v3.2c-.2,20.8-.4,41.6-.6,62.4,0,7.3-1.3,14.3-5,20.7-2.1,3.7-4.7,7-8.1,9.5-7.3,5.5-16,5.6-23.4.2-3.7-2.7-6.5-6.2-8.8-10.1-3.2-5.6-5-11.7-5.7-18.2-1.3-12.5-1.8-24.9-1.7-37.4.1-8.7.2-17.4.3-26.1h0Z"/>
  <path class="st3" d="M1.8,124.5c0-25.9,0-51.8,0-77.7,0-4.5-.3-9-.2-13.5,0-3.9.1-7.8.6-11.7,1.1-8.4,6.6-13.5,15.4-14.6,4.1-.5,8.2-.8,12.3-.8,34.6-.4,69.2-.9,103.8-1.5,9.5-.2,17.7,2.8,24.4,9.4,12.2,11.9,11.4,30-1.7,40.8-6.2,5.1-13.5,7.6-21.6,7.6-15.2,0-30.4-.1-45.6-.2-8,0-16,0-24,0-2.7,0-2.7,0-2.7,2.5,0,10,0,20,0,30,0,2.6,0,2.6,2.6,2.6,17.3-.2,34.6-.4,51.9-.6,7.5-.1,14.5,1.6,20.8,5.6,3.9,2.4,7.1,5.5,9.6,9.3,5,7.9,4.8,17.3-.8,24.8-5.9,7.9-14.1,11.9-23.6,13.2-4.6.6-9.2.3-13.8.3-14.6,0-29.2-.1-43.8-.1-2.8,0-2.8,0-2.8,2.8.3,18.8.5,37.6.9,56.4.2,10-3.1,18.4-10.1,25.4-13.4,13.4-33.9,12-45.5-3.1-2.3-3-4-6.5-5.4-10-.8-1.9-.9-3.9-.9-5.9,0-9.6-.2-19.2-.2-28.8,0-20.8,0-41.6,0-62.4h.3,0Z"/>
  <path class="st2" d="M545,154.8c-.7,10.9-2.6,21.6-6.3,32-1.5,4.3-3.6,8.2-5.8,12.1-3.4,6.1-7.2,12-11.3,17.7-3,4.2-6.6,8-10.3,11.6-.3-.6-.7-.1-.7-.1-4.9-3.9-9.9-7.6-14.4-12-4.4-4.3-8.5-8.9-12.1-13.8-11.6-15.8-18.7-33.5-21.7-52.8-1.2-7.5-1.7-15.1-1.2-22.8,1.5-26.1,10-49.5,27-69.6,1.9-2.3,4.1-4.4,6.1-6.6,0,0,0,0,0,0,0,0,0,0,0,0,0,0,.2,0,.3,0s.3,0,.3,0c8,4.2,14,10.6,20,17.1,4.7,5,8.6,10.6,12.2,16.3,4,6.4,7.2,13.2,9.9,20.2,2.5,6.8,4.6,13.7,5.9,20.8,1.8,9.9,2.6,19.8,2,29.9Z"/>
  <path class="st2" d="M494.4,50.5h0s0,0,0,0Z"/>
  <path class="st1" d="M494.4,50.5s0,0,0,0"/>
</svg>