<?xml version="1.0" encoding="UTF-8"?>
<svg id="Layer_1" xmlns="http://www.w3.org/2000/svg" version="1.1" viewBox="0 0 234 261">
  <!-- Generator: Adobe Illustrator 30.1.0, SVG Export Plug-In . SVG Version: 2.1.1 Build 136)  -->
  <defs>
    <style>
      .st0 {
        fill: #fdf8fb;
      }

      .st1 {
        fill: #38d122;
      }
    </style>
  </defs>
  <path class="st1" d="M123.6,253.7c-34.8,2.3-68.1-11.8-91.2-38.2-18.7-21.3-27.1-49-26.3-77.4s15.9-57.4,37.8-77.3,38.2-24.1,61.1-26.9,31.7.8,32.8,0l36.4-26.5c9.1-6.6,2.6,41.7,6.6,46,31.3,22.5,49.5,60.3,46.2,98.7-4.7,55.1-48.3,98-103.5,101.7ZM124.9,118.3c0-4.6-3.7-8.3-8.3-8.3s-8.3,3.7-8.3,8.3,3.7,8.3,8.3,8.3,8.3-3.7,8.3-8.3ZM67.3,120.4c0-4.3-3.5-7.8-7.8-7.8s-7.8,3.5-7.8,7.8,3.5,7.8,7.8,7.8,7.8-3.5,7.8-7.8ZM111.8,158.4c-10.5.3-20.3,0-30.3.4l-16.2.8c.3,12.8,7.8,23.9,20.3,25.3,14,1.6,27.8-12.9,26.2-26.5Z"/>
  <path class="st0" d="M111.8,158.4c1.6,13.6-12.2,28.1-26.2,26.5-12.5-1.4-20-12.5-20.3-25.3l16.2-.8c10-.5,19.8-.1,30.3-.4Z"/>
  <circle class="st0" cx="116.5" cy="118.3" r="8.3"/>
  <circle class="st0" cx="59.5" cy="120.4" r="7.8"/>
</svg>