<?xml version="1.0" encoding="UTF-8"?>
<svg id="Layer_1" xmlns="http://www.w3.org/2000/svg" version="1.1" viewBox="0 0 283 293">
  <!-- Generator: Adobe Illustrator 30.1.0, SVG Export Plug-In . SVG Version: 2.1.1 Build 136)  -->
  <defs>
    <style>
      .st0 {
        fill: #fff;
      }

      .st1 {
        fill: #f29627;
      }

      .st2 {
        fill: none;
        stroke: #fff;
        stroke-miterlimit: 10;
        stroke-width: 7px;
      }
    </style>
  </defs>
  <g id="Body">
    <path class="st1" d="M193.1,17.6c-.1,0-.3,0-.4,0-.2,0-.3,0-.5,0,.4,0,.8.2,1.2.2-.1,0-.2,0-.3-.1Z"/>
    <path class="st1" d="M229.8,237.2c-38.4,43.7-104.8,53.2-153.7,20-27.6-18.2-44.7-45.5-50.1-77.5-5.3-31.4,1.9-61.8,20.4-87.5,18.4-25.5,44.5-41.7,75.6-47.5,10.9-2.1,22.2-1.1,33-.8l4-2.7c.3-.3.7-.7,1.1-1l25.8-20.8c1.9-1.5,4.1-2.1,6.3-2,.2,0,.3,0,.5.1-.2,0-.3,0-.5,0,.4,0,.8.2,1.2.2-.1,0-.2,0-.3-.1.1,0,.2,0,.3,0,3.5.6,6.5,3.3,7.3,7.3l6.1,32.6,1.5,6.6c5.6,3.5,8.6,5.9,8.6,5.9,1.4,1.2,2.8,2.5,4.1,3.9v-.2c46.2,42.2,51.6,114.6,8.8,163.5Z"/>
    <path class="st1" d="M193.4,17.7c-.4,0-.8-.1-1.2-.2.2,0,.3,0,.5,0,.1,0,.3,0,.4,0,.1,0,.2,0,.3.1Z"/>
  </g>
  <g id="Mouth">
    <path class="st0" d="M98.5,193.1"/>
    <path class="st0" d="M107.3,193.1"/>
    <path class="st0" d="M166.1,196.1c-2.3,2.8-5.4,4.9-9.1,6l-21.9,6.1c-2.5.7-5.2.8-7.8.4l-40.2-6.7c-2.6-.4-5.1-1.4-7.2-2.9l-18.7-12.9c-2.9-2-5-4.7-6.3-7.8,0-.3-.2-.5-.3-.8l111.5,18.7h0Z"/>
  </g>
  <polyline class="st2" points="166.4 167.4 130.6 140.5 176 125.6"/>
  <polyline class="st2" points="74.1 104.5 106 135.9 59.1 144.6"/>
</svg>