<?xml version="1.0" encoding="UTF-8"?>
<svg id="Layer_1" xmlns="http://www.w3.org/2000/svg" version="1.1" viewBox="0 0 283 293">
  <!-- Generator: Adobe Illustrator 30.1.0, SVG Export Plug-In . SVG Version: 2.1.1 Build 136)  -->
  <defs>
    <style>
      .st0 {
        fill: #fff;
      }

      .st1 {
        fill: #f77c7c;
      }
    </style>
  </defs>
  <path class="st1" d="M229.8,237.5c-38.4,43.7-104.8,53.2-153.7,20-27.6-18.2-44.7-45.5-50.1-77.5-5.3-31.4,1.9-61.8,20.4-87.5,18.4-25.5,44.5-41.7,75.6-47.5,11.1-2.1,22.5-1,33.5-.8,0,0,.7,0,1.9.3.4,0,.8.2,1.3.2h.2l32-26.6c1.5-1.2,3.7-.4,4,1.5l.6,3.6,6.4,37.3c9.6,5.2,15,9.5,15,9.5,1.4,1.2,2.8,2.5,4.1,3.9h0c46.2,42.3,51.6,114.7,8.8,163.6Z"/>
  <g id="Mouth">
    <circle class="st0" cx="125.4" cy="183.8" r="4.9"/>
  </g>
  <g id="Right_Eye">
    <g>
      <path class="st0" d="M118.2,136.6l-.6,1.4c-.4.8-.8,1.5-1.3,2.2s-1,1.4-1.5,2.1c-.2.2-.4.4-.6.7h0c0,0-.2.2-.3.3,0,0,0,.2-.2.2-.3.3-.6.6-.9,1,0,0,0,.1-.2.2,0,0-.2.2-.3.3-1.1,1.1-2.1,2.1-3.2,3.1h0c-.3.2-.5.5-.8.7h-.2c-2.5,2.2-4.9,4.2-7.6,6-1.6-1.2-3.2-2.6-4.7-3.9l-.6-.6c-.2-.2-.4-.5-.7-.6-.2-.1-.2-.3-.4-.4,0,0,0-.1-.2-.2,0,0,0,0-.2-.1,0,0,0-.1-.2-.2h0c0-.1,0-.2,0-.2,0,0,0-.1,0-.1,0,0,0-.1,0-.2,0,0,0-.1-.2-.2,0,0,0,0,0-.1,0,0-.2-.1-.2-.2,0,0,0-.2-.2-.2h0l-1-1-.2-.2-2.4-2.7c-.7-.8-1.3-1.6-1.9-2.4l-.4-.5c0-.1-.2-.3-.3-.5l-1-1.7c-.4-.6-.6-1.2-.9-1.9v-.2c0-.3-.2-.5-.3-.8l-.2-.7c-.3-1.2-.6-2.5-.5-3.8v-.2h0c0-.5,0-1,.2-1.4.6-3.1,2.4-5.7,5-7.1.8-.4,1.7-.7,2.5-.9h.2c1.7-.2,3.2,0,4.8.6h.2c.9.4,1.7,1,2.5,1.7.5.5.8,1,1.2,1.5,0,0,.2.3.3.4l.4.6c.4.7.7,1.4.9,2.2,0-.2.2-.4.2-.5.6-1.2,1.3-2.2,2.2-3.2,1.8-2,4.1-3.1,6.7-3.1s1.7,0,2.5.4h.2c1.6.7,3,1.8,4.2,3.2.3.4.6.9.8,1.3.2.4.4.8.5,1.2.4,1,.6,2.1.6,3.2h0"/>
      <path class="st0" d="M93.2,149.2h0c0,.1,0,0,0-.2,0,0,0,0,.2.2h0Z"/>
    </g>
  </g>
  <g id="Left_Eye">
    <g>
      <path class="st0" d="M165.3,139.4l-.6,1.4c-.4.8-.8,1.5-1.3,2.2s-1,1.4-1.5,2.1c-.2.2-.4.4-.6.7h0c0,0-.2.2-.3.3,0,0,0,.2-.2.2-.3.3-.6.6-.9,1,0,0,0,.1-.2.2,0,0-.2.2-.3.3-1.1,1.1-2.1,2.1-3.2,3.1h0c-.3.2-.5.5-.8.7h-.2c-2.5,2.2-4.9,4.2-7.6,6-1.6-1.2-3.2-2.6-4.7-3.9l-.6-.6c-.2-.2-.4-.5-.7-.6-.2-.1-.2-.3-.4-.4,0,0,0-.1-.2-.2,0,0,0,0-.2-.1,0,0,0-.1-.2-.2h0c0-.1,0-.2,0-.2,0,0,0-.1,0-.1,0,0,0-.1,0-.2,0,0,0-.1-.2-.2,0,0,0,0,0-.1,0,0-.2-.1-.2-.2,0,0,0-.2-.2-.2h0l-1-1-.2-.2-2.4-2.7c-.7-.8-1.3-1.6-1.9-2.4l-.4-.5c0-.1-.2-.3-.3-.5l-1-1.7c-.4-.6-.6-1.2-.9-1.9v-.2c0-.3-.2-.5-.3-.8l-.2-.7c-.3-1.2-.6-2.5-.5-3.8v-.2h0c0-.5,0-1,.2-1.4.6-3.1,2.4-5.7,5-7.1.8-.4,1.7-.7,2.5-.9h.2c1.7-.2,3.2,0,4.8.6h.2c.9.4,1.7,1,2.5,1.7.5.5.8,1,1.2,1.5,0,0,.2.3.3.4l.4.6c.4.7.7,1.4.9,2.2,0-.2.2-.4.2-.5.6-1.2,1.3-2.2,2.2-3.2,1.8-2,4.1-3.1,6.7-3.1s1.7,0,2.5.4h.2c1.6.7,3,1.8,4.2,3.2.3.4.6.9.8,1.3.2.4.4.8.5,1.2.4,1,.6,2.1.6,3.2h0"/>
      <path class="st0" d="M140.3,152h0c0,.1,0,0,0-.2,0,0,0,0,.2.2h0Z"/>
    </g>
  </g>
</svg>