<?xml version="1.0" encoding="UTF-8"?>
<svg id="Layer_1" xmlns="http://www.w3.org/2000/svg" version="1.1" viewBox="0 0 283 293">
  <!-- Generator: Adobe Illustrator 30.1.0, SVG Export Plug-In . SVG Version: 2.1.1 Build 136)  -->
  <defs>
    <style>
      .st0 {
        fill: #fff;
      }

      .st1 {
        fill: #f7d33e;
      }

      .st2 {
        fill: #fdfdfd;
      }
    </style>
  </defs>
  <g id="Body">
    <path class="st1" d="M162.3,130.4h0c-.4-.4-.8-.7-1.2-.9h0c-.9-.4-2-.7-3.1-.7h-2.6s0,0,0,.1c-.4.9-.7,2.2-.7,4.6,0,3.5,1.8,6.7,4.7,8.4.6-.1,1.1-.3,1.6-.6.6-.3,1.1-.7,1.6-1.2,1.2-1.2,2-2.9,2-4.7s-.9-3.6-2.3-5ZM103.6,130.4h0c-.4-.4-.8-.7-1.2-.9h0c-.9-.4-2-.7-3.1-.7h-4.7s0,0,0,.1c-.4.9-.7,2.2-.7,4.6,0,3.6,2,6.9,5,8.6h.4c1.1,0,2.2-.3,3.1-.8.6-.3,1.1-.7,1.6-1.2,1.2-1.2,2-2.9,2-4.7s-.9-3.6-2.3-5Z"/>
    <path class="st1" d="M118.2,124.6c-1.3-.8-3-1.2-4.7-1.2h-9.6c-2.7,0-5.3,1.2-7.1,3-1,1-1.8,1.4-2.3,2.4,0,0,0,0,0,.1h4.9c1.1,0,2.2.3,3.1.8.4.2.8.5,1.1.7h0c1.5,1.2,2.4,3.1,2.4,5.2s-.8,3.5-2,4.7h0c-.5.4-1,.8-1.6,1.1-.9.5-2,.8-3.1.8h-.3c1.4.8,3,1.2,4.8,1.2h9.6c1.7,0,3.3-.5,4.7-1.2.9-.5,1.6-1.1,2.4-1.8,1.8-1.8,3-4.4,3-7.1,0-3.8-2.1-7.1-5.3-8.7ZM144.3,168.2l-10.6-2.2c-3.6-.8-7.2,1.5-7.9,5.2l-2.2,10.6c-.8,3.6,1.5,7.2,5.2,7.9l10.6,2.2c3.6.8,7.2-1.5,7.9-5.2l2.2-10.6c.8-3.6-1.5-7.2-5.2-7.9ZM179,124.6c-1.3-.8-3-1.2-4.7-1.2h-9.6c-2.7,0-5.3,1.2-7.1,3-1,1-1.8,1.4-2.3,2.4,0,0,0,0,0,.1h2.7c1.1,0,2.2.3,3.1.8.4.2.8.5,1.1.7h0c1.5,1.2,2.4,3.1,2.4,5.2s-.8,3.5-2,4.7h0c-.5.4-1,.8-1.6,1.1-.5.3-1,.5-1.6.6,1.5.9,3.2,1.4,5.1,1.4h9.6c1.7,0,3.3-.5,4.7-1.2.9-.5,1.6-1.1,2.4-1.8,1.8-1.8,3-4.4,3-7.1,0-3.8-2.1-7.1-5.3-8.7Z"/>
    <path class="st1" d="M218.7,71.8h-.1l-8.8-49.8c-1.4-7.8-10.7-11.2-16.7-6.1l-33.6,28.3c-12.2,0-25-1.6-37.4.7-31.1,5.8-57.2,22-75.6,47.5-18.5,25.7-25.7,56.1-20.4,87.5,5.4,32,22.5,59.3,50.1,77.5,48.9,33.2,115.3,23.7,153.7-20,43.6-49.7,37.2-123.8-11.2-165.6ZM120.4,140.4c-.8.8-1.5,1.4-2.4,1.8-1.4.8-3,1.2-4.7,1.2h-9.6c-1.8,0-3.4-.5-4.8-1.2,0,0-.1,0-.2-.1-3-1.7-5-5-5-8.6s.2-3.7.7-4.6c0,0,0,0,0-.1.5-1,1.3-1.4,2.3-2.4,1.8-1.8,4.4-3,7.1-3h9.6c1.7,0,3.3.5,4.7,1.2,3.1,1.6,5.2,4.9,5.3,8.7,0,2.7-1.2,5.3-3,7.1ZM149.5,176.1l-2.2,10.6c-.8,3.6-4.3,5.9-7.9,5.2l-10.6-2.2c-3.6-.8-5.9-4.3-5.2-7.9l2.2-10.6c.8-3.6,4.3-5.9,7.9-5.2l10.6,2.2c3.6.8,5.9,4.3,5.2,7.9ZM181.3,140.4c-.8.8-1.5,1.4-2.4,1.8-1.4.8-3,1.2-4.7,1.2h-9.6c-1.9,0-3.6-.5-5.1-1.4,0,0-.1,0-.2,0-2.8-1.8-4.7-4.9-4.7-8.4s.2-3.7.7-4.6c0,0,0,0,0-.1.5-1,1.3-1.4,2.3-2.4,1.8-1.8,4.3-3,7.1-3h9.6c1.7,0,3.3.5,4.7,1.2,3.1,1.6,5.2,4.9,5.3,8.7,0,2.7-1.2,5.3-3,7.1Z"/>
  </g>
  <g id="Mouth">
    <path class="st0" d="M149.5,176.1l-2.2,10.6c-.8,3.6-4.3,5.9-7.9,5.2l-10.6-2.2c-3.6-.8-5.9-4.3-5.2-7.9l2.2-10.6c.8-3.6,4.3-5.9,7.9-5.2l10.6,2.2c3.6.8,5.9,4.3,5.2,7.9Z"/>
  </g>
  <g id="Right_Eye">
    <path class="st2" d="M184.3,133.3c0,2.7-1.2,5.3-3,7.1-.8.8-1.5,1.4-2.4,1.8-1.4.8-3,1.2-4.7,1.2h-9.6c-1.9,0-3.6-.5-5.1-1.4,0,0-.1,0-.2,0-2.8-1.8-4.7-4.9-4.7-8.4s.2-3.7.7-4.6c0,0,0,0,0-.1.5-1,1.3-1.4,2.3-2.4,1.8-1.8,4.3-3,7.1-3h9.6c1.7,0,3.3.5,4.7,1.2,3.1,1.6,5.2,4.9,5.3,8.7Z"/>
  </g>
  <g id="Left_Eye">
    <path class="st2" d="M123.4,133.3c0,2.7-1.2,5.3-3,7.1-.8.8-1.5,1.4-2.4,1.8-1.4.8-3,1.2-4.7,1.2h-9.6c-1.8,0-3.4-.5-4.8-1.2,0,0-.1,0-.2-.1-3-1.7-5-5-5-8.6s.2-3.7.7-4.6c0,0,0,0,0-.1.5-1,1.3-1.4,2.3-2.4,1.8-1.8,4.4-3,7.1-3h9.6c1.7,0,3.3.5,4.7,1.2,3.1,1.6,5.2,4.9,5.3,8.7Z"/>
  </g>
</svg>